<svg width="79" height="100" viewBox="0 0 79 100" fill="none" xmlns="http://www.w3.org/2000/svg">
<path d="M8.86 100C6.24667 100 4.14667 99.2533 2.56 97.76C1.06667 96.2667 0.32 94.3067 0.32 91.88C0.32 84.6 3.16667 77.9733 8.86 72C14.6467 65.9333 23.7 60.1 36.02 54.5C41.9 51.8867 46.38 49.5067 49.46 47.36C52.54 45.12 54.6867 42.8333 55.9 40.5C57.2067 38.0733 57.86 35.18 57.86 31.82C57.86 27.1533 56.2733 23.56 53.1 21.04C49.9267 18.4267 45.4467 17.12 39.66 17.12C26.4067 17.12 19.78 22.58 19.78 33.5C19.78 36.02 19.9667 38.2133 20.34 40.08C19.5 40.2667 18.2867 40.36 16.7 40.36C12.4067 40.36 8.72 39.1467 5.64 36.72C2.65333 34.2 1.16 31.12 1.16 27.48C1.16 22.5333 2.84 18.0067 6.2 13.9C9.56 9.79333 14.18 6.57333 20.06 4.24C25.94 1.90666 32.4733 0.739993 39.66 0.739993C47.0333 0.739993 53.52 2.04666 59.12 4.65999C64.8133 7.17999 69.2 10.82 72.28 15.58C75.36 20.2467 76.9 25.66 76.9 31.82C76.9 38.7267 74.3333 45.0267 69.2 50.72C64.0667 56.32 56.2733 61.5 45.82 66.26C37.7 69.9933 31.68 73.3067 27.76 76.2C23.9333 79 21.88 81.6133 21.6 84.04H64.16C68.8267 84.04 72.3733 85.3933 74.8 88.1C77.2267 90.8067 78.44 94.7733 78.44 100H8.86Z" fill="#CD5B25"/>
</svg>
