<svg width="80" height="102" viewBox="0 0 80 102" fill="none" xmlns="http://www.w3.org/2000/svg">
<path d="M39.8 101.26C32.1467 101.26 25.3333 100.14 19.36 97.9C13.3867 95.5667 8.72 92.3467 5.36 88.24C2 84.04 0.32 79.28 0.32 73.96C0.32 69.5733 1.72 66.4 4.52 64.44C7.41333 62.48 12.08 61.5 18.52 61.5C18.24 63.2733 18.1 65.3733 18.1 67.8C18.1 73.4 19.92 77.6933 23.56 80.68C27.2933 83.5733 32.7067 85.02 39.8 85.02C46.8 85.02 52.0733 83.9 55.62 81.66C59.26 79.42 61.08 76.1067 61.08 71.72C61.08 62.5733 54.8733 58 42.46 58H37.84C35.5067 58 33.5933 57.2533 32.1 55.76C30.6067 54.2667 29.86 52.3533 29.86 50.02C29.86 47.5933 30.56 45.68 31.96 44.28C33.4533 42.7867 35.4133 42.04 37.84 42.04H42.6C53.0533 42.04 58.28 37.7933 58.28 29.3C58.28 25.2867 56.74 22.2533 53.66 20.2C50.58 18.0533 46.1467 16.98 40.36 16.98C34.0133 16.98 29.1133 18.1 25.66 20.34C22.2067 22.4867 20.48 25.6133 20.48 29.72C20.48 31.4933 20.6667 33.5 21.04 35.74C15.6267 35.9267 11.1933 34.9933 7.74 32.94C4.38 30.8867 2.7 28.1333 2.7 24.68C2.7 20.0133 4.28667 15.86 7.46 12.22C10.6333 8.58 15.0667 5.78 20.76 3.81999C26.5467 1.76666 33.08 0.739993 40.36 0.739993C47.7333 0.739993 54.22 1.90666 59.82 4.24C65.42 6.57333 69.7133 9.93333 72.7 14.32C75.78 18.6133 77.32 23.6067 77.32 29.3C77.32 38.0733 72.7933 44.98 63.74 50.02C69.62 52.54 73.7733 55.48 76.2 58.84C78.72 62.2 79.98 66.4933 79.98 71.72C79.98 77.6 78.3 82.78 74.94 87.26C71.58 91.74 66.8667 95.1933 60.8 97.62C54.7333 100.047 47.7333 101.26 39.8 101.26Z" fill="#CD5B25"/>
</svg>
